<svg width="48" height="48" viewBox="0 0 48 48" fill="none" xmlns="http://www.w3.org/2000/svg">
<path d="M24.0002 23.0844C22.8486 23.0844 21.7442 22.6269 20.9299 21.8126C20.1157 20.9984 19.6582 19.894 19.6582 18.7424C19.6582 17.5908 20.1157 16.4864 20.9299 15.6721C21.7442 14.8579 22.8486 14.4004 24.0002 14.4004C25.152 14.4004 26.2567 14.858 27.0712 15.6724C27.8856 16.4869 28.3432 17.5916 28.3432 18.7434C28.3432 19.8952 27.8856 20.9999 27.0712 21.8144C26.2567 22.6288 25.152 23.0864 24.0002 23.0864V29.5984" stroke="#235DB8" stroke-width="3" stroke-linecap="round" stroke-linejoin="round"/>
<path d="M41.3443 23.7797V13.2197C41.3442 12.4094 41.0892 11.6197 40.6154 10.9625C40.1416 10.3052 39.473 9.81374 38.7042 9.55766L28.8762 6.27966C25.7091 5.23751 22.2914 5.23751 19.1243 6.27966L9.29625 9.55566C8.52787 9.81164 7.85947 10.3028 7.38567 10.9597C6.91188 11.6165 6.6567 12.4058 6.65625 13.2157V23.7757C6.65661 26.3823 7.31777 28.9464 8.57795 31.2282C9.83813 33.51 11.6562 35.4351 13.8623 36.8237L21.9583 41.9117C22.5709 42.2936 23.2783 42.496 24.0002 42.496C24.7222 42.496 25.4296 42.2936 26.0422 41.9117L34.1363 36.8237C36.3424 35.4355 38.1607 33.5108 39.4212 31.2294C40.6817 28.9479 41.3433 26.3842 41.3443 23.7777" stroke="#235DB8" stroke-width="3" stroke-linecap="round" stroke-linejoin="round"/>
</svg>
