<svg width="48" height="48" viewBox="0 0 48 48" fill="none" xmlns="http://www.w3.org/2000/svg">
<path d="M14.6741 17.9996C14.9415 15.6092 15.7641 13.3145 17.0761 11.2986C18.3882 9.28267 20.1534 7.60145 22.2308 6.38915C24.3082 5.17685 26.6403 4.46705 29.0409 4.31642C31.4414 4.16579 33.8439 4.5785 36.0566 5.5216C38.2693 6.46471 40.2308 7.91208 41.7846 9.74815C43.3383 11.5842 44.4413 13.7581 45.0054 16.0963C45.5695 18.4345 45.5791 20.8722 45.0334 23.2148C44.4878 25.5573 43.402 27.7399 41.8627 29.5882" stroke="#366F09" stroke-width="3" stroke-linecap="round" stroke-linejoin="round"/>
<path d="M29.9999 12.8564V19.7136H35.1427M2.57129 26.5707H16.2856C17.4112 26.5707 18.5258 26.7924 19.5657 27.2232C20.6057 27.6539 21.5506 28.2853 22.3465 29.0812C23.1424 29.8772 23.7738 30.8221 24.2045 31.862C24.6353 32.9019 24.857 34.0165 24.857 35.1422M14.5713 35.1422H31.7141C33.5328 35.1422 35.2769 35.8646 36.5629 37.1506C37.8488 38.4365 38.5713 40.1807 38.5713 41.9993C38.5713 42.454 38.3907 42.89 38.0692 43.2115C37.7477 43.533 37.3117 43.7136 36.857 43.7136H2.57129" stroke="#366F09" stroke-width="3" stroke-linecap="round" stroke-linejoin="round"/>
</svg>
