<svg width="16" height="16" viewBox="0 0 16 16" fill="none" xmlns="http://www.w3.org/2000/svg">
<g opacity="0.6">
<path d="M7.51163 10.3085L4.13953 7.2234C4.09302 7.18085 4.05829 7.13489 4.03535 7.08553C4.0124 7.03617 4.00062 6.98284 4 6.92553C4 6.81206 4.04279 6.71277 4.12837 6.62766C4.21395 6.54255 4.3262 6.5 4.46512 6.5H11.5349C11.6744 6.5 11.787 6.54255 11.8726 6.62766C11.9581 6.71277 12.0006 6.81206 12 6.92553C12 6.9539 11.9535 7.05319 11.8605 7.2234L8.48837 10.3085C8.41085 10.3794 8.33333 10.4291 8.25581 10.4574C8.17829 10.4858 8.09302 10.5 8 10.5C7.90697 10.5 7.8217 10.4858 7.74418 10.4574C7.66666 10.4291 7.58914 10.3794 7.51163 10.3085Z" fill="white"/>
</g>
</svg>
