<svg width="16" height="16" viewBox="0 0 16 16" fill="none" xmlns="http://www.w3.org/2000/svg">
<g opacity="0.6">
<path d="M10.6501 7.99935L5.75006 3.09935C5.58339 2.93268 5.50273 2.73535 5.50806 2.50735C5.51339 2.27935 5.59962 2.08224 5.76673 1.91602C5.93384 1.7498 6.13117 1.66646 6.35873 1.66602C6.58628 1.66557 6.78339 1.74891 6.95006 1.91602L12.0667 7.04935C12.2001 7.18268 12.3001 7.33268 12.3667 7.49935C12.4334 7.66602 12.4667 7.83268 12.4667 7.99935C12.4667 8.16602 12.4334 8.33268 12.3667 8.49935C12.3001 8.66602 12.2001 8.81602 12.0667 8.94935L6.93339 14.0827C6.76673 14.2494 6.57228 14.33 6.35006 14.3247C6.12784 14.3194 5.93339 14.2331 5.76673 14.066C5.60006 13.8989 5.51673 13.7016 5.51673 13.474C5.51673 13.2465 5.60006 13.0494 5.76673 12.8827L10.6501 7.99935Z" fill="#010101"/>
</g>
</svg>
