<svg width="16" height="16" viewBox="0 0 16 16" fill="none" xmlns="http://www.w3.org/2000/svg">
<g opacity="0.6">
<path d="M10.6501 8.00033L5.75006 3.10033C5.58339 2.93366 5.50273 2.73633 5.50806 2.50833C5.51339 2.28033 5.59962 2.08322 5.76673 1.91699C5.93384 1.75077 6.13117 1.66744 6.35873 1.66699C6.58628 1.66655 6.78339 1.74988 6.95006 1.91699L12.0667 7.05033C12.2001 7.18366 12.3001 7.33366 12.3667 7.50033C12.4334 7.66699 12.4667 7.83366 12.4667 8.00033C12.4667 8.16699 12.4334 8.33366 12.3667 8.50033C12.3001 8.66699 12.2001 8.81699 12.0667 8.95033L6.93339 14.0837C6.76673 14.2503 6.57228 14.331 6.35006 14.3257C6.12784 14.3203 5.93339 14.2341 5.76673 14.067C5.60006 13.8999 5.51673 13.7025 5.51673 13.475C5.51673 13.2474 5.60006 13.0503 5.76673 12.8837L10.6501 8.00033Z" fill="#010101"/>
</g>
</svg>
