<svg width="103" height="28" viewBox="0 0 103 28" fill="none" xmlns="http://www.w3.org/2000/svg">
<g clip-path="url(#clip0_3540_17172)">
<path d="M18.0301 2.72895C18.0301 2.72895 20.0247 3.1234 21.0528 4.00309C21.0528 4.00309 21.6849 4.0573 22.2405 3.5703C22.2405 3.5703 22.0812 3.08241 22.388 2.78492C22.7263 2.45658 23.1932 2.48831 23.5225 2.80916C23.8517 3.13001 23.937 3.74483 23.5809 3.95065C23.2248 4.15647 22.9094 4.06568 22.9094 4.06568C22.9094 4.06568 22.7004 4.57868 22.0972 4.81976C22.0972 4.81976 22.9821 5.42709 23.982 7.72769C24.6647 9.29845 24.5462 11.1107 24.1568 12.1575C23.8937 12.8644 22.3062 12.6497 22.7276 11.2147C23.1491 9.77972 22.5221 5.76909 19.0365 4.53329C15.5513 3.29749 13.1967 4.49935 11.7161 6.42886C10.7746 7.65585 9.75222 6.41829 10.3796 5.47601C11.007 4.53373 13.1556 2.13529 16.8468 2.49139C16.8468 2.49139 16.63 1.99822 16.8022 1.38296C16.8022 1.38296 16.3275 1.09825 16.4885 0.539848C16.6352 0.0321284 17.2301 -0.144163 17.6736 0.126004C18.1071 0.390441 18.2408 0.824558 18.031 1.16789C17.8826 1.41029 17.6199 1.45833 17.6199 1.45833C17.6199 1.45833 17.7229 2.2675 18.031 2.72807L18.0301 2.72895Z" fill="#FFCA00"/>
<path d="M26.1997 17.3565C25.0713 15.958 22.7085 13.2057 22.4255 12.8522C22.143 12.4987 21.7804 12.7918 21.9604 13.1246C22.1404 13.4569 24.8939 17.9012 25.6753 19.2102C26.4567 20.5191 26.1071 22.1423 24.6473 22.6664C23.1875 23.1904 21.9228 21.9228 21.5939 20.5196C21.2651 19.1163 19.0749 9.87905 18.7253 8.62254C18.3757 7.36602 16.9055 7.06191 15.98 7.56479C15.0545 8.06766 7.2305 12.623 5.78104 13.419C4.33159 14.2149 2.1228 14.0576 1.90516 11.8447C1.67195 9.47799 5.80744 9.1849 8.02575 8.75519C10.2977 8.31535 14.8767 7.62517 14.8767 7.62517C14.8767 7.62517 6.03459 7.5833 3.40264 8.05796C0.770694 8.53263 -0.614291 10.7248 0.263169 13.2524C1.14063 15.78 4.21131 15.8355 4.97887 15.724C4.97887 15.724 1.96703 22.6368 8.61159 26.4619C15.0273 30.1552 19.7153 24.6117 20.4006 22.587C20.4006 22.587 22.93 26.2689 26.1032 24.1789C29.3833 22.0185 27.3026 18.7245 26.1993 17.3569L26.1997 17.3565ZM14.6487 10.422L17.6047 11.7676L17.9335 13.3908L13.2503 11.2753L14.6487 10.4216V10.422ZM10.8598 12.6684L18.5605 16.1035L18.8071 17.423L9.73394 13.4225L10.8598 12.6684ZM16.5606 24.5826C13.8188 26.3698 10.3531 26.0181 8.25333 23.996C6.15357 21.974 5.73085 19.3776 6.22453 17.5173C6.71821 15.657 7.99286 14.5706 7.99286 14.5706C7.99286 14.5706 16.6701 17.9779 19.0831 19.4997C19.0831 19.4997 19.3025 22.795 16.5606 24.5826Z" fill="#FFCA00"/>
<path d="M11.9164 16.5537C9.50819 16.5537 7.55597 18.5423 7.55597 20.9954C7.55597 23.4485 9.50819 25.437 11.9164 25.437C14.3247 25.437 16.2769 23.4485 16.2769 20.9954C16.2769 18.5423 14.3247 16.5537 11.9164 16.5537ZM13.2711 18.0055C14.2858 18.5291 14.7241 19.3321 14.7241 19.3321C14.7241 19.3321 12.1882 18.983 11.1666 17.7613C11.1666 17.7613 12.2565 17.4819 13.2707 18.0055H13.2711ZM8.68222 21.6287C8.16474 19.199 10.0906 18.1135 10.1044 18.1553C10.1044 19.8728 8.68222 21.6287 8.68222 21.6287ZM10.4605 23.898C9.40478 23.3533 9.11013 22.6552 9.11013 22.6552C9.11013 22.6552 10.9589 22.6552 12.5603 24.1704C12.5603 24.1704 11.5158 24.4428 10.4605 23.898ZM10.1044 21.6776C10.1044 21.6776 10.9819 20.1906 11.1324 19.1434C11.1324 19.1434 12.1743 19.8345 13.6683 20.2814C13.6683 20.2814 12.7017 21.8103 12.6472 22.7671C12.6472 22.7671 11.4955 21.9293 10.1044 21.6781V21.6776ZM13.6 23.7931C13.8055 21.5172 15.1286 20.3651 15.1286 20.3651C15.1286 20.3651 15.3207 20.9235 15.0806 21.9848C14.8404 23.0461 13.6 23.7931 13.6 23.7931Z" fill="#FFCA00"/>
<path d="M16.3021 5.71194C16.2813 5.65509 16.219 5.626 16.1632 5.64671L15.8867 5.75117L15.7842 5.46954C15.7634 5.41269 15.7015 5.38316 15.6453 5.40431C15.5895 5.42547 15.5605 5.48893 15.5812 5.54579L15.6838 5.82741L15.4073 5.93187C15.3515 5.95302 15.3225 6.01648 15.3433 6.07334C15.3593 6.11785 15.4008 6.14518 15.4445 6.14518C15.4571 6.14518 15.4696 6.14297 15.4822 6.13813L15.7586 6.03367L15.8612 6.3153C15.8772 6.35981 15.9187 6.38714 15.9624 6.38714C15.975 6.38714 15.9875 6.38493 16.0001 6.38009C16.0559 6.35893 16.0849 6.29547 16.0641 6.23861L15.9616 5.95699L16.238 5.85253C16.2939 5.83138 16.3228 5.76791 16.3021 5.71106V5.71194Z" fill="#FFCA00"/>
<path d="M20.4751 7.57132C20.4543 7.51446 20.392 7.48537 20.3362 7.50609L20.0597 7.61054L19.9571 7.32892C19.9364 7.27206 19.8745 7.24253 19.8183 7.26369C19.7624 7.28484 19.7334 7.34831 19.7542 7.40516L19.8568 7.68679L19.5803 7.79124C19.5245 7.81239 19.4955 7.87586 19.5162 7.93271C19.5323 7.97723 19.5738 8.00455 19.6175 8.00455C19.63 8.00455 19.6426 8.00235 19.6551 7.9975L19.9316 7.89305L20.0342 8.17467C20.0502 8.21919 20.0917 8.24651 20.1354 8.24651C20.1479 8.24651 20.1605 8.24431 20.173 8.23946C20.2289 8.21831 20.2578 8.15484 20.2371 8.09799L20.1345 7.81636L20.411 7.71191C20.4668 7.69075 20.4958 7.62729 20.4751 7.57044V7.57132Z" fill="#FFCA00"/>
</g>
<path d="M97.2965 21.9225C96.0848 21.9225 95.0394 21.675 94.1602 21.1799C93.2883 20.6775 92.616 19.9646 92.1431 19.041C91.6777 18.1101 91.4449 17.0129 91.4449 15.7495V15.7384C91.4449 14.475 91.6777 13.3815 92.1431 12.458C92.616 11.5271 93.2809 10.8067 94.138 10.2969C94.995 9.78712 96.0036 9.53223 97.1635 9.53223C98.3235 9.53223 99.3283 9.77974 100.178 10.2748C101.028 10.7698 101.681 11.4643 102.14 12.3583C102.598 13.2523 102.827 14.3014 102.827 15.5057V16.5031H93.0408V14.4639H101.297L99.7679 16.3701V15.1178C99.7679 14.4233 99.6608 13.8396 99.4465 13.3668C99.2323 12.8939 98.933 12.5393 98.5488 12.3029C98.1646 12.0664 97.7213 11.9482 97.2189 11.9482C96.7165 11.9482 96.2695 12.0701 95.8779 12.3139C95.4938 12.5577 95.1908 12.9161 94.9692 13.3889C94.7475 13.8618 94.6367 14.4381 94.6367 15.1178V16.3812C94.6367 17.0314 94.7475 17.5929 94.9692 18.0658C95.1908 18.5312 95.5048 18.8896 95.9112 19.1408C96.3176 19.3846 96.8015 19.5065 97.363 19.5065C97.8063 19.5065 98.1905 19.44 98.5156 19.307C98.8481 19.1666 99.114 18.9893 99.3135 18.775C99.5204 18.5608 99.6608 18.3428 99.7347 18.1212L99.7568 18.0547H102.727L102.705 18.1877C102.609 18.6162 102.431 19.0521 102.173 19.4954C101.922 19.9313 101.574 20.334 101.131 20.7034C100.695 21.0728 100.159 21.3683 99.5241 21.59C98.8887 21.8116 98.1462 21.9225 97.2965 21.9225Z" fill="#FFCA00"/>
<path d="M79.0161 21.6786V19.185H83.571C84.5315 19.185 85.2666 18.9929 85.7764 18.6087C86.2862 18.2171 86.5411 17.6519 86.5411 16.9131V16.8909C86.5411 16.4033 86.4229 15.9896 86.1865 15.6497C85.9501 15.3098 85.5991 15.0549 85.1337 14.885C84.6756 14.7151 84.1067 14.6301 83.4269 14.6301H79.0161V12.3693H83.0391C83.9774 12.3693 84.6904 12.1809 85.178 11.8041C85.673 11.4273 85.9205 10.8916 85.9205 10.1971V10.1749C85.9205 9.53954 85.7026 9.04821 85.2666 8.70096C84.8307 8.34632 84.2212 8.169 83.438 8.169H79.0161V5.68652H84.3025C85.3147 5.68652 86.1865 5.84907 86.9179 6.17415C87.6494 6.49924 88.2146 6.96471 88.6136 7.57055C89.0125 8.169 89.212 8.87828 89.212 9.69839V9.72055C89.212 10.3042 89.0753 10.8473 88.802 11.3497C88.536 11.8447 88.1703 12.2584 87.7048 12.5909C87.2393 12.916 86.7148 13.1192 86.1311 13.2005V13.278C86.8699 13.3298 87.5275 13.5292 88.1038 13.8765C88.6801 14.2164 89.1307 14.667 89.4558 15.2286C89.7883 15.7827 89.9545 16.407 89.9545 17.1015V17.1237C89.9545 18.0546 89.7292 18.8599 89.2785 19.5396C88.8352 20.2194 88.1998 20.7476 87.3723 21.1244C86.5522 21.4939 85.5696 21.6786 84.4244 21.6786H79.0161ZM77.3427 21.6786V5.68652H80.6896V21.6786H77.3427Z" fill="#FFCA00"/>
<path d="M68.5606 21.9668C67.2898 21.9668 66.1815 21.7821 65.2358 21.4127C64.2975 21.0358 63.5586 20.5002 63.0193 19.8057C62.48 19.1038 62.1807 18.2615 62.1216 17.2789L62.1105 17.1016H65.269L65.2912 17.2235C65.3651 17.6372 65.5498 17.9955 65.8453 18.2985C66.1483 18.594 66.5361 18.8267 67.009 18.9967C67.4892 19.1592 68.0323 19.2405 68.6381 19.2405C69.2587 19.2405 69.7944 19.1592 70.2451 18.9967C70.6958 18.8267 71.043 18.5866 71.2868 18.2763C71.5307 17.966 71.6526 17.6077 71.6526 17.2013V17.1902C71.6526 16.6583 71.4383 16.2371 71.0098 15.9268C70.5886 15.6165 69.8831 15.3616 68.893 15.1621L67.1974 14.8186C65.6237 14.5083 64.4379 13.9763 63.6399 13.2227C62.842 12.4617 62.443 11.479 62.443 10.2747V10.2637C62.4504 9.28839 62.7127 8.43874 63.2299 7.71468C63.7544 6.98323 64.4748 6.41433 65.391 6.00798C66.3145 5.60162 67.3636 5.39844 68.5384 5.39844C69.7796 5.39844 70.8472 5.59423 71.7412 5.98581C72.6352 6.37 73.3334 6.91305 73.8358 7.61494C74.3456 8.31683 74.6264 9.13324 74.6781 10.0642L74.6892 10.2637H71.5307L71.5085 10.1307C71.4568 9.70953 71.2979 9.3512 71.0319 9.05566C70.7734 8.76013 70.4298 8.53109 70.0013 8.36855C69.5801 8.206 69.0925 8.12473 68.5384 8.12473C67.9769 8.12473 67.4892 8.206 67.0755 8.36855C66.6617 8.53109 66.3441 8.76013 66.1224 9.05566C65.9008 9.34381 65.7899 9.67628 65.7899 10.0531V10.0642C65.7899 10.574 66.0042 10.984 66.4327 11.2943C66.8612 11.6046 67.5373 11.8521 68.4608 12.0369L70.1453 12.3804C71.2684 12.6021 72.1845 12.9087 72.8938 13.3003C73.6105 13.6918 74.1387 14.1869 74.4786 14.7853C74.8259 15.3764 74.9995 16.0894 74.9995 16.9242V16.9353C74.9995 17.9623 74.7409 18.8526 74.2237 19.6062C73.7139 20.3598 72.9788 20.9435 72.0183 21.3572C71.0578 21.7636 69.9052 21.9668 68.5606 21.9668Z" fill="#FFCA00"/>
<path d="M45.9907 21.6786L51.5762 5.68652H54.5242V8.80071H53.5046L49.5149 21.6786H45.9907ZM48.994 17.7997L49.8141 15.2951H57.2726L58.0928 17.7997H48.994ZM57.5719 21.6786L53.5822 8.80071V5.68652H55.5105L61.0961 21.6786H57.5719Z" fill="#FFCA00"/>
<path d="M38.3715 21.6786V15.7051L32.797 5.68652H36.421L40.0006 12.5133H40.0893L43.6689 5.68652H47.2818L41.7184 15.7051V21.6786H38.3715Z" fill="#FFCA00"/>
<defs>
<clipPath id="clip0_3540_17172">
<rect width="28.0462" height="27.3644" fill="white"/>
</clipPath>
</defs>
</svg>
