<svg width="103" height="28" viewBox="0 0 103 28" fill="none" xmlns="http://www.w3.org/2000/svg">
<g clip-path="url(#clip0_7315_16840)">
<path d="M18.0311 2.72895C18.0311 2.72895 20.0257 3.1234 21.0537 4.00309C21.0537 4.00309 21.6859 4.0573 22.2414 3.5703C22.2414 3.5703 22.0822 3.08241 22.389 2.78492C22.7273 2.45658 23.1942 2.48831 23.5234 2.80916C23.8527 3.13001 23.9379 3.74483 23.5818 3.95065C23.2258 4.15647 22.9103 4.06568 22.9103 4.06568C22.9103 4.06568 22.7014 4.57868 22.0982 4.81976C22.0982 4.81976 22.983 5.42709 23.9829 7.72769C24.6657 9.29845 24.5471 11.1107 24.1577 12.1575C23.8947 12.8644 22.3072 12.6497 22.7286 11.2147C23.15 9.77972 22.5231 5.76909 19.0375 4.53329C15.5523 3.29749 13.1977 4.49935 11.7171 6.42886C10.7756 7.65585 9.7532 6.41829 10.3806 5.47601C11.008 4.53373 13.1566 2.13529 16.8477 2.49139C16.8477 2.49139 16.631 1.99822 16.8032 1.38296C16.8032 1.38296 16.3285 1.09825 16.4895 0.539848C16.6362 0.0321284 17.2311 -0.144163 17.6746 0.126004C18.1081 0.390441 18.2418 0.824558 18.032 1.16789C17.8836 1.41029 17.6209 1.45833 17.6209 1.45833C17.6209 1.45833 17.7239 2.2675 18.032 2.72807L18.0311 2.72895Z" fill="#010101"/>
<path d="M26.1997 17.3584C25.0713 15.96 22.7085 13.2076 22.4255 12.8542C22.143 12.5007 21.7804 12.7938 21.9604 13.1265C22.1404 13.4588 24.8939 17.9031 25.6753 19.2121C26.4567 20.5211 26.1071 22.1443 24.6473 22.6683C23.1875 23.1923 21.9228 21.9248 21.5939 20.5215C21.2651 19.1182 19.0749 9.88101 18.7253 8.62449C18.3757 7.36797 16.9055 7.06387 15.98 7.56674C15.0545 8.06961 7.2305 12.625 5.78104 13.4209C4.33159 14.2169 2.1228 14.0596 1.90516 11.8467C1.67195 9.47994 5.80744 9.18686 8.02575 8.75715C10.2977 8.3173 14.8767 7.62712 14.8767 7.62712C14.8767 7.62712 6.03459 7.58525 3.40264 8.05991C0.770694 8.53458 -0.614291 10.7268 0.263169 13.2543C1.14063 15.7819 4.21131 15.8375 4.97887 15.7259C4.97887 15.7259 1.96703 22.6388 8.61159 26.4639C15.0273 30.1572 19.7153 24.6137 20.4006 22.589C20.4006 22.589 22.93 26.2708 26.1032 24.1809C29.3833 22.0204 27.3026 18.7264 26.1993 17.3588L26.1997 17.3584ZM14.6487 10.424L17.6047 11.7695L17.9335 13.3927L13.2503 11.2772L14.6487 10.4235V10.424ZM10.8598 12.6704L18.5605 16.1054L18.8071 17.425L9.73394 13.4245L10.8598 12.6704ZM16.5606 24.5846C13.8188 26.3718 10.3531 26.0201 8.25333 23.998C6.15357 21.9759 5.73085 19.3796 6.22453 17.5193C6.71821 15.659 7.99286 14.5726 7.99286 14.5726C7.99286 14.5726 16.6701 17.9798 19.0831 19.5017C19.0831 19.5017 19.3025 22.797 16.5606 24.5846Z" fill="#010101"/>
<path d="M11.9152 16.5547C9.50691 16.5547 7.55469 18.5433 7.55469 20.9964C7.55469 23.4494 9.50691 25.438 11.9152 25.438C14.3234 25.438 16.2756 23.4494 16.2756 20.9964C16.2756 18.5433 14.3234 16.5547 11.9152 16.5547ZM13.2699 18.0064C14.2845 18.53 14.7228 19.333 14.7228 19.333C14.7228 19.333 12.1869 18.984 11.1653 17.7623C11.1653 17.7623 12.2552 17.4829 13.2694 18.0064H13.2699ZM8.68093 21.6297C8.16346 19.1999 10.0893 18.1144 10.1031 18.1563C10.1031 19.8738 8.68093 21.6297 8.68093 21.6297ZM10.4592 23.899C9.4035 23.3542 9.10885 22.6561 9.10885 22.6561C9.10885 22.6561 10.9577 22.6561 12.559 24.1714C12.559 24.1714 11.5145 24.4437 10.4592 23.899ZM10.1031 21.6786C10.1031 21.6786 10.9806 20.1916 11.1312 19.1444C11.1312 19.1444 12.173 19.8355 13.6671 20.2824C13.6671 20.2824 12.7005 21.8113 12.6459 22.7681C12.6459 22.7681 11.4942 21.9303 10.1031 21.679V21.6786ZM13.5987 23.7941C13.8042 21.5182 15.1273 20.3661 15.1273 20.3661C15.1273 20.3661 15.3194 20.9245 15.0793 21.9858C14.8392 23.0471 13.5987 23.7941 13.5987 23.7941Z" fill="#010101"/>
<path d="M16.3015 5.71292C16.2807 5.65606 16.2184 5.62698 16.1626 5.64769L15.8861 5.75214L15.7836 5.47052C15.7628 5.41366 15.7009 5.38413 15.6447 5.40529C15.5889 5.42644 15.5599 5.48991 15.5806 5.54676L15.6832 5.82839L15.4067 5.93284C15.3509 5.954 15.3219 6.01746 15.3427 6.07432C15.3587 6.11883 15.4002 6.14615 15.4439 6.14615C15.4565 6.14615 15.469 6.14395 15.4816 6.1391L15.758 6.03465L15.8606 6.31628C15.8766 6.36079 15.9181 6.38811 15.9618 6.38811C15.9744 6.38811 15.9869 6.38591 15.9995 6.38106C16.0553 6.35991 16.0843 6.29644 16.0635 6.23959L15.961 5.95796L16.2374 5.85351C16.2932 5.83236 16.3222 5.76889 16.3015 5.71204V5.71292Z" fill="#010101"/>
<path d="M20.4733 7.57229C20.4526 7.51544 20.3903 7.48635 20.3345 7.50707L20.058 7.61152L19.9554 7.32989C19.9347 7.27304 19.8728 7.24351 19.8165 7.26466C19.7607 7.28582 19.7317 7.34928 19.7525 7.40614L19.8551 7.68776L19.5786 7.79222C19.5228 7.81337 19.4938 7.87684 19.5145 7.93369C19.5305 7.9782 19.5721 8.00553 19.6158 8.00553C19.6283 8.00553 19.6409 8.00333 19.6534 7.99848L19.9299 7.89402L20.0324 8.17565C20.0485 8.22016 20.09 8.24749 20.1337 8.24749C20.1462 8.24749 20.1588 8.24529 20.1713 8.24044C20.2272 8.21928 20.2561 8.15582 20.2354 8.09896L20.1328 7.81734L20.4093 7.71289C20.4651 7.69173 20.4941 7.62827 20.4733 7.57141V7.57229Z" fill="#010101"/>
</g>
<path d="M97.2969 21.9215C96.0852 21.9215 95.0397 21.674 94.1605 21.179C93.2887 20.6766 92.6164 19.9636 92.1435 19.04C91.678 18.1091 91.4453 17.0119 91.4453 15.7485V15.7375C91.4453 14.474 91.678 13.3806 92.1435 12.457C92.6164 11.5261 93.2813 10.8057 94.1384 10.2959C94.9954 9.78615 96.0039 9.53125 97.1639 9.53125C98.3239 9.53125 99.3287 9.77876 100.178 10.2738C101.028 10.7688 101.682 11.4633 102.14 12.3573C102.598 13.2513 102.827 14.3004 102.827 15.5047V16.5021H93.0412V14.463H101.298L99.7683 16.3692V15.1168C99.7683 14.4223 99.6611 13.8386 99.4469 13.3658C99.2326 12.8929 98.9334 12.5383 98.5492 12.3019C98.165 12.0654 97.7217 11.9472 97.2193 11.9472C96.7169 11.9472 96.2699 12.0691 95.8783 12.313C95.4941 12.5568 95.1912 12.9151 94.9695 13.388C94.7479 13.8608 94.6371 14.4371 94.6371 15.1168V16.3802C94.6371 17.0304 94.7479 17.5919 94.9695 18.0648C95.1912 18.5302 95.5052 18.8886 95.9116 19.1398C96.3179 19.3836 96.8019 19.5055 97.3634 19.5055C97.8067 19.5055 98.1909 19.439 98.516 19.306C98.8484 19.1656 99.1144 18.9883 99.3139 18.7741C99.5208 18.5598 99.6611 18.3418 99.735 18.1202L99.7572 18.0537H102.727L102.705 18.1867C102.609 18.6152 102.432 19.0511 102.173 19.4944C101.922 19.9303 101.575 20.333 101.131 20.7024C100.696 21.0718 100.16 21.3674 99.5245 21.589C98.8891 21.8107 98.1465 21.9215 97.2969 21.9215Z" fill="#010101"/>
<path d="M79.0172 21.6795V19.186H83.5721C84.5326 19.186 85.2677 18.9939 85.7775 18.6097C86.2873 18.2181 86.5422 17.6529 86.5422 16.9141V16.8919C86.5422 16.4043 86.424 15.9905 86.1876 15.6507C85.9512 15.3108 85.6002 15.0559 85.1347 14.886C84.6767 14.716 84.1078 14.6311 83.428 14.6311H79.0172V12.3702H83.0402C83.9785 12.3702 84.6914 12.1818 85.1791 11.805C85.6741 11.4282 85.9216 10.8926 85.9216 10.1981V10.1759C85.9216 9.54052 85.7037 9.04919 85.2677 8.70194C84.8318 8.3473 84.2223 8.16998 83.4391 8.16998H79.0172V5.6875H84.3036C85.3158 5.6875 86.1876 5.85004 86.919 6.17513C87.6505 6.50022 88.2157 6.96568 88.6147 7.57153C89.0136 8.16998 89.2131 8.87926 89.2131 9.69936V9.72153C89.2131 10.3052 89.0764 10.8483 88.8031 11.3507C88.5371 11.8457 88.1714 12.2594 87.7059 12.5919C87.2404 12.917 86.7159 13.1202 86.1322 13.2014V13.279C86.871 13.3307 87.5286 13.5302 88.1049 13.8775C88.6811 14.2173 89.1318 14.668 89.4569 15.2295C89.7894 15.7837 89.9556 16.408 89.9556 17.1025V17.1246C89.9556 18.0556 89.7303 18.8609 89.2796 19.5406C88.8363 20.2204 88.2009 20.7486 87.3734 21.1254C86.5533 21.4948 85.5707 21.6795 84.4255 21.6795H79.0172ZM77.3438 21.6795V5.6875H80.6907V21.6795H77.3438Z" fill="#010101"/>
<path d="M68.5594 21.9668C67.2886 21.9668 66.1803 21.7821 65.2346 21.4127C64.2963 21.0358 63.5575 20.5002 63.0181 19.8057C62.4788 19.1038 62.1796 18.2615 62.1205 17.2789L62.1094 17.1016H65.2679L65.2901 17.2235C65.3639 17.6372 65.5486 17.9955 65.8442 18.2985C66.1471 18.594 66.535 18.8267 67.0078 18.9967C67.4881 19.1592 68.0311 19.2405 68.637 19.2405C69.2576 19.2405 69.7932 19.1592 70.2439 18.9967C70.6946 18.8267 71.0419 18.5866 71.2857 18.2763C71.5295 17.966 71.6514 17.6077 71.6514 17.2013V17.1902C71.6514 16.6583 71.4371 16.2371 71.0086 15.9268C70.5875 15.6165 69.8819 15.3616 68.8919 15.1621L67.1962 14.8186C65.6225 14.5083 64.4367 13.9763 63.6388 13.2227C62.8408 12.4617 62.4419 11.479 62.4419 10.2747V10.2637C62.4492 9.28839 62.7115 8.43874 63.2287 7.71468C63.7533 6.98323 64.4736 6.41433 65.3898 6.00798C66.3133 5.60162 67.3625 5.39844 68.5372 5.39844C69.7785 5.39844 70.8461 5.59423 71.7401 5.98581C72.6341 6.37 73.3323 6.91305 73.8347 7.61494C74.3445 8.31683 74.6252 9.13324 74.6769 10.0642L74.688 10.2637H71.5295L71.5073 10.1307C71.4556 9.70953 71.2968 9.3512 71.0308 9.05566C70.7722 8.76013 70.4286 8.53109 70.0001 8.36855C69.579 8.206 69.0914 8.12473 68.5372 8.12473C67.9757 8.12473 67.4881 8.206 67.0743 8.36855C66.6606 8.53109 66.3429 8.76013 66.1212 9.05566C65.8996 9.34381 65.7888 9.67628 65.7888 10.0531V10.0642C65.7888 10.574 66.003 10.984 66.4316 11.2943C66.8601 11.6046 67.5361 11.8521 68.4596 12.0369L70.1442 12.3804C71.2672 12.6021 72.1834 12.9087 72.8926 13.3003C73.6093 13.6918 74.1376 14.1869 74.4774 14.7853C74.8247 15.3764 74.9983 16.0894 74.9983 16.9242V16.9353C74.9983 17.9623 74.7397 18.8526 74.2225 19.6062C73.7128 20.3598 72.9776 20.9435 72.0171 21.3572C71.0566 21.7636 69.9041 21.9668 68.5594 21.9668Z" fill="#010101"/>
<path d="M45.9922 21.6795L51.5778 5.6875H54.5257V8.80168H53.5061L49.5164 21.6795H45.9922ZM48.9955 17.8007L49.8156 15.296H57.2742L58.0943 17.8007H48.9955ZM57.5734 21.6795L53.5837 8.80168V5.6875H55.5121L61.0976 21.6795H57.5734Z" fill="#010101"/>
<path d="M38.3714 21.6795V15.7061L32.7969 5.6875H36.4209L40.0005 12.5143H40.0892L43.6688 5.6875H47.2817L41.7183 15.7061V21.6795H38.3714Z" fill="#010101"/>
<defs>
<clipPath id="clip0_7315_16840">
<rect width="28.0462" height="27.3644" fill="white"/>
</clipPath>
</defs>
</svg>
