<svg width="32" height="32" viewBox="0 0 32 32" fill="none" xmlns="http://www.w3.org/2000/svg">
<path d="M25.0174 13.648C25.3907 11.1213 23.4774 9.77467 20.8427 8.86L21.696 5.456L19.616 4.93733L18.7854 8.25733L17.1254 7.86133L17.9667 4.51733L15.8867 4L15.032 7.416L13.7094 7.104V7.09067L10.8334 6.37067L10.28 8.59467C10.28 8.59467 11.82 8.95733 11.796 8.968C12.6374 9.18533 12.7827 9.73867 12.7587 10.172L11.796 14.0693L12.012 14.1413L11.784 14.0933L10.424 19.5427C10.328 19.796 10.064 20.18 9.4747 20.0227C9.4987 20.06 7.9707 19.6627 7.9707 19.6627L6.93604 22.0333L9.6427 22.7067L11.1227 23.092L10.256 26.5453L12.336 27.0613L13.18 23.6453L14.8507 24.0773L13.9974 27.4827L16.0774 28L16.932 24.5467C20.4814 25.22 23.152 24.9573 24.272 21.744C25.1734 19.1573 24.2227 17.6773 22.3587 16.6907C23.7187 16.3907 24.74 15.488 25.0054 13.648H25.0174ZM20.2654 20.3133C19.6267 22.9 15.272 21.492 13.8654 21.1533L15.008 16.572C16.4147 16.932 20.9387 17.6173 20.2654 20.3V20.3133ZM20.9027 13.612C20.3254 15.9587 16.692 14.7667 15.5254 14.4787L16.5587 10.328C17.7387 10.6173 21.516 11.1707 20.9027 13.612Z" fill="#F7931A"/>
</svg>
