<svg width="32" height="32" viewBox="0 0 32 32" fill="none" xmlns="http://www.w3.org/2000/svg">
<path d="M15 30V27.7237C10.0331 27.4375 7.01562 24.8787 7 21H11.5C11.6106 22.6462 12.9913 23.9031 15 24.125V18L13.3269 17.5625C9.51437 16.6763 7.47437 14.4756 7.47437 11.1825C7.47437 7.30062 10.255 4.755 15 4.375V2H17V4.375C21.8369 4.76875 24.4375 7.35875 24.5 11H20C19.9525 9.49625 19.0106 8.28813 17 8.125V13.875L18.9263 14.33C22.9756 15.2162 25 17.3125 25 20.75C25 24.7712 22.2663 27.3675 17 27.7075V30H15ZM15 13.5V8.125C13.2756 8.22 12.0456 9.27938 12.0456 10.7831C12.0456 12.1769 13.07 13.0881 15 13.5ZM17 18.375V24.125C19.3844 24.0287 20.5238 22.9425 20.5238 21.2644C20.5238 19.7281 19.3844 18.6938 17 18.375Z" fill="#6CDE07"/>
</svg>
