<svg width="32" height="32" viewBox="0 0 32 32" fill="none" xmlns="http://www.w3.org/2000/svg">
<path d="M9.34608 3.85412C8.80064 2.98942 7.67568 2.73987 6.83479 3.297C5.99391 3.85412 5.74392 4.99738 6.28935 5.86207L13.2551 16.929H10.0904C9.33472 16.929 8.72678 17.55 8.72678 18.3218C8.72678 19.0937 9.33472 19.7147 10.0904 19.7147H14.1812V21.5717H10.0904C9.33472 21.5717 8.72678 22.1927 8.72678 22.9645C8.72678 23.7364 9.33472 24.3573 10.0904 24.3573H14.1812V27.1429C14.1812 28.1701 14.9936 29 15.9993 29C17.0049 29 17.8174 28.1701 17.8174 27.1429V24.3573H21.9082C22.6639 24.3573 23.2718 23.7364 23.2718 22.9645C23.2718 22.1927 22.6639 21.5717 21.9082 21.5717H17.8174V19.7147H21.9082C22.6639 19.7147 23.2718 19.0937 23.2718 18.3218C23.2718 17.55 22.6639 16.929 21.9082 16.929H18.7435L25.7092 5.86207C26.2547 4.99738 26.0104 3.84831 25.1638 3.297C24.3172 2.74568 23.1923 2.98942 22.6525 3.85412L15.9993 14.422L9.34608 3.85412Z" fill="#FF4841"/>
</svg>
