<svg width="32" height="32" viewBox="0 0 32 32" fill="none" xmlns="http://www.w3.org/2000/svg">
<path d="M20 28C17.3778 28 15.0444 27.2556 13 25.7667C10.9556 24.2778 9.51111 22.3556 8.66667 20H4V17.3333H8.06667C8.02222 17.0889 8 16.8667 8 16.6667V15.3333C8 15.1333 8.02222 14.9111 8.06667 14.6667H4V12H8.66667C9.51111 9.64444 10.9556 7.72222 13 6.23333C15.0444 4.74444 17.3778 4 20 4C21.5333 4 22.9836 4.26667 24.3507 4.8C25.7178 5.33333 26.9342 6.08889 28 7.06667L25.6667 9.4C24.8889 8.75556 24.0164 8.25022 23.0493 7.884C22.0822 7.51778 21.0658 7.33422 20 7.33333C18.3333 7.33333 16.8169 7.76133 15.4507 8.61733C14.0844 9.47333 13.0453 10.6009 12.3333 12H20V14.6667H11.4667C11.4222 14.9111 11.3889 15.1333 11.3667 15.3333C11.3444 15.5333 11.3333 15.7556 11.3333 16C11.3333 16.2444 11.3444 16.4667 11.3667 16.6667C11.3889 16.8667 11.4222 17.0889 11.4667 17.3333H20V20H12.3333C13.0444 21.4 14.0836 22.528 15.4507 23.384C16.8178 24.24 18.3342 24.6676 20 24.6667C21.0667 24.6667 22.0947 24.4831 23.084 24.116C24.0733 23.7489 24.9342 23.2436 25.6667 22.6L28 24.9333C26.9333 25.9111 25.7164 26.6667 24.3493 27.2C22.9822 27.7333 21.5324 28 20 28Z" fill="#1D8AFF"/>
</svg>
