<svg width="16" height="16" viewBox="0 0 16 16" fill="none" xmlns="http://www.w3.org/2000/svg">
<g clip-path="url(#clip0_482_3791)">
<path d="M4.68689 0.0568202C3.83556 0.0968202 3.25423 0.23282 2.74689 0.432154C2.21337 0.634254 1.7302 0.949999 1.33089 1.35749C0.925088 1.7579 0.611174 2.24173 0.410892 2.77549C0.214226 3.28482 0.0802256 3.86749 0.0428923 4.71815C0.00555894 5.56882 -0.00310772 5.84349 0.000892277 8.01615C0.00489228 10.1888 0.0148923 10.4608 0.0562256 11.3142C0.0968923 12.1655 0.232226 12.7468 0.431559 13.2548C0.636892 13.7808 0.911559 14.2262 1.35689 14.6702C1.75769 15.0761 2.242 15.39 2.77623 15.5902C3.28489 15.7868 3.86689 15.9208 4.71823 15.9582C5.57023 15.9955 5.84423 16.0042 8.01623 16.0002C10.1882 15.9962 10.4616 15.9862 11.3142 15.9455C12.1676 15.9055 12.7456 15.7688 13.2542 15.5702C13.7875 15.368 14.2704 15.0522 14.6696 14.6448C15.0755 14.244 15.3894 13.7597 15.5896 13.2255C15.7862 12.7168 15.9202 12.1348 15.9569 11.2842C15.9942 10.4308 16.0036 10.1575 15.9989 7.98549C15.9949 5.81349 15.9856 5.54082 15.9449 4.68749C15.9049 3.83415 15.7689 3.25549 15.5689 2.74682C15.3669 2.2136 15.0514 1.73067 14.6442 1.33149C14.2436 0.925602 13.7596 0.611683 13.2256 0.411487C12.7162 0.215487 12.1349 0.0808202 11.2829 0.0448202C10.4316 0.00682016 10.1576 -0.00317984 7.98489 0.000820163C5.81223 0.00482016 5.54023 0.0148202 4.68689 0.0568202ZM4.78023 14.5188C4.00023 14.4855 3.57689 14.3555 3.29489 14.2468C2.94687 14.1197 2.63196 13.9157 2.37356 13.6502C2.10712 13.3929 1.90205 13.0789 1.77356 12.7315C1.66356 12.4495 1.53156 12.0262 1.49556 11.2462C1.45556 10.4035 1.44756 10.1502 1.44223 8.01415C1.43823 5.87815 1.44623 5.62549 1.48289 4.78215C1.51623 4.00282 1.64689 3.57882 1.75489 3.29682C1.89889 2.92282 2.07289 2.65682 2.35156 2.37549C2.60904 2.10897 2.92327 1.90389 3.27089 1.77549C3.55289 1.66549 3.97556 1.53482 4.75556 1.49749C5.59889 1.45749 5.85156 1.44949 7.98756 1.44415C10.1229 1.44015 10.3762 1.44815 11.2209 1.48549C11.9996 1.51882 12.4236 1.64815 12.7056 1.75749C13.0789 1.90149 13.3456 2.07415 13.6269 2.35415C13.9082 2.63415 14.0809 2.89882 14.2269 3.27282C14.3369 3.55415 14.4682 3.97682 14.5049 4.75749C14.5449 5.60082 14.5542 5.85415 14.5582 7.98949C14.5616 10.1248 14.5542 10.3782 14.5176 11.2215C14.4836 12.0015 14.3542 12.4248 14.2456 12.7082C14.1016 13.0815 13.9276 13.3482 13.6482 13.6282C13.3909 13.8946 13.0769 14.0997 12.7296 14.2282C12.4482 14.3382 12.0242 14.4695 11.2456 14.5068C10.4016 14.5468 10.1489 14.5548 8.01223 14.5595C5.87556 14.5642 5.62423 14.5548 4.78023 14.5188ZM11.3022 3.72482C11.3025 3.91472 11.3591 4.10027 11.4648 4.25801C11.5705 4.41575 11.7207 4.53859 11.8962 4.61098C12.0718 4.68338 12.2649 4.70208 12.4511 4.66473C12.6373 4.62737 12.8082 4.53564 12.9422 4.40113C13.0763 4.26662 13.1674 4.09537 13.2041 3.90905C13.2408 3.72274 13.2215 3.52972 13.1484 3.35442C13.0754 3.17911 12.9521 3.0294 12.794 2.92421C12.6359 2.81902 12.4501 2.76309 12.2602 2.76349C12.0057 2.76402 11.7619 2.86558 11.5822 3.04584C11.4026 3.22611 11.3019 3.47033 11.3022 3.72482ZM3.89289 8.00882C3.89501 9.09824 4.32982 10.1422 5.10166 10.911C5.87349 11.6799 6.91914 12.1106 8.00856 12.1085C9.09798 12.1064 10.1419 11.6716 10.9108 10.8997C11.6796 10.1279 12.1103 9.08224 12.1082 7.99282C12.0925 6.91238 11.6518 5.88164 10.8814 5.1239C10.1111 4.36616 9.07321 3.94244 7.99266 3.94454C6.91211 3.94665 5.8759 4.3744 5.10852 5.13514C4.34114 5.89588 3.90439 6.92833 3.89289 8.00882ZM5.33356 8.00615C5.33251 7.47874 5.48787 6.96285 5.78001 6.52374C6.07215 6.08462 6.48794 5.742 6.97481 5.53919C7.46167 5.33638 7.99774 5.2825 8.51523 5.38436C9.03272 5.48622 9.50838 5.73925 9.88206 6.11144C10.2557 6.48363 10.5107 6.95828 10.6146 7.47535C10.7185 7.99243 10.6668 8.52871 10.4659 9.01638C10.2651 9.50406 9.92412 9.92121 9.48618 10.2151C9.04823 10.509 8.53298 10.6664 8.00556 10.6675C7.65537 10.6682 7.30847 10.5999 6.98466 10.4665C6.66086 10.3332 6.3665 10.1373 6.11838 9.89021C5.87026 9.64308 5.67325 9.34951 5.53859 9.02624C5.40393 8.70297 5.33426 8.35635 5.33356 8.00615Z" fill="#010101"/>
</g>
<defs>
<clipPath id="clip0_482_3791">
<rect width="16" height="16" fill="white"/>
</clipPath>
</defs>
</svg>
