<svg width="16" height="16" viewBox="0 0 16 16" fill="none" xmlns="http://www.w3.org/2000/svg">
<path d="M15.6641 4.13613C15.5714 3.80386 15.3944 3.5012 15.1503 3.25756C14.9061 3.01391 14.603 2.83755 14.2706 2.74563C13.0231 2.41213 8.00808 2.41213 8.00808 2.41213C8.00808 2.41213 3.00258 2.40413 1.74208 2.74563C1.41017 2.838 1.10775 3.01456 0.864135 3.25818C0.620517 3.50179 0.443963 3.80421 0.351584 4.13613C0.114759 5.41325 -0.00191687 6.70974 0.00308384 8.00863C0.000386212 9.30128 0.117048 10.5914 0.351584 11.8626C0.444396 12.1946 0.621047 12.4972 0.86456 12.7413C1.10807 12.9853 1.41026 13.1626 1.74208 13.2561C2.98958 13.5896 8.00808 13.5896 8.00808 13.5896C8.00808 13.5896 13.0106 13.5896 14.2706 13.2561C14.603 13.163 14.9058 12.9859 15.1498 12.7419C15.3939 12.4978 15.571 12.195 15.6641 11.8626C15.8936 10.5921 16.0056 9.30013 15.9976 8.00863C16.0056 6.70863 15.8961 5.41463 15.6641 4.13613ZM6.40608 10.4021V5.60463L10.5806 8.00863L6.40608 10.4021Z" fill="#010101"/>
</svg>
