<svg width="16" height="16" viewBox="0 0 16 16" fill="none" xmlns="http://www.w3.org/2000/svg">
<path d="M4.11111 2.55556C4.11111 3.38156 3.55889 4.09244 2.55478 4.09244C1.60978 4.09244 1 3.422 1 2.596C1 1.74822 1.59111 1 2.55556 1C3.52 1 4.09244 1.70778 4.11111 2.55556ZM1 15V4.88889H4.11111V15H1ZM5.66667 8.34533C5.66667 7.14367 5.627 6.13956 5.58733 5.27233H8.38267L8.52111 6.61244H8.58022C8.97378 5.98167 9.93822 5.05689 11.5529 5.05689C13.5222 5.05689 15 6.37522 15 9.21178V15H11.8889V9.66367C11.8889 8.42389 11.4168 7.47811 10.3333 7.47811C9.50733 7.47811 9.09356 8.147 8.87656 8.69844C8.79722 8.896 8.77778 9.17133 8.77778 9.44744V15H5.66667V8.34533Z" fill="#010101"/>
</svg>
